<svg xmlns="http://www.w3.org/2000/svg" viewBox="0 0 512 512" width="512" height="512"><metadata><rdf:RDF xmlns:rdf="http://www.w3.org/1999/02/22-rdf-syntax-ns#" xmlns:dc="http://purl.org/dc/elements/1.1/"><rdf:Description><dc:creator>RealFaviconGenerator</dc:creator><dc:source>https://realfavicongenerator.net</dc:source></rdf:Description></rdf:RDF></metadata><circle cx="256" cy="256" r="256" fill="#070d0d"></circle><ellipse cx="270" cy="265" rx="105" ry="82" fill="#5dddb4"></ellipse><ellipse cx="230" cy="285" rx="90" ry="58" fill="#3ab8d4" opacity="0.9"></ellipse><ellipse cx="220" cy="278" rx="65" ry="38" fill="#50c9e8" opacity="0.5"></ellipse><ellipse cx="328" cy="210" rx="52" ry="48" fill="#5dddb4"></ellipse><ellipse cx="334" cy="198" rx="32" ry="26" fill="#7ee8c8" opacity="0.45"></ellipse><ellipse cx="302" cy="242" rx="38" ry="30" fill="#5dddb4"></ellipse><path d="M175 295 Q140 330 118 345 Q145 328 162 340 Q155 318 178 310Z" fill="#3ab8d4"></path><path d="M170 308 Q130 350 108 368 Q138 348 155 362 Q148 336 172 322Z" fill="#3ab8d4" opacity="0.7"></path><path d="M182 282 Q148 308 132 316 Q155 305 165 318 Q162 295 185 293Z" fill="#50c9e8" opacity="0.8"></path><path d="M375 208 Q398 214 404 222 Q395 224 376 220Z" fill="#f0c060"></path><path d="M375 220 Q396 224 400 232 Q390 231 375 226Z" fill="#d4a040"></path><circle cx="354" cy="200" r="13" fill="#070d0d"></circle><circle cx="354" cy="200" r="9" fill="#1a2a2a"></circle><circle cx="354" cy="200" r="5" fill="#070d0d"></circle><circle cx="357" cy="197" r="2.5" fill="white"></circle><line x1="258" y1="338" x2="248" y2="368" stroke="#d4a040" stroke-width="5" stroke-linecap="round"></line><line x1="248" y1="368" x2="230" y2="375" stroke="#d4a040" stroke-width="4" stroke-linecap="round"></line><line x1="248" y1="368" x2="248" y2="378" stroke="#d4a040" stroke-width="4" stroke-linecap="round"></line><line x1="248" y1="368" x2="265" y2="376" stroke="#d4a040" stroke-width="4" stroke-linecap="round"></line><line x1="285" y1="340" x2="278" y2="368" stroke="#d4a040" stroke-width="5" stroke-linecap="round"></line><line x1="278" y1="368" x2="260" y2="375" stroke="#d4a040" stroke-width="4" stroke-linecap="round"></line><line x1="278" y1="368" x2="278" y2="378" stroke="#d4a040" stroke-width="4" stroke-linecap="round"></line><line x1="278" y1="368" x2="295" y2="376" stroke="#d4a040" stroke-width="4" stroke-linecap="round"></line><path d="M165 272 Q200 262 235 268" stroke="#070d0d" stroke-width="1.5" fill="none" opacity="0.2"></path><path d="M158 285 Q196 274 232 280" stroke="#070d0d" stroke-width="1.5" fill="none" opacity="0.2"></path><path d="M162 298 Q198 287 230 293" stroke="#070d0d" stroke-width="1.5" fill="none" opacity="0.2"></path><style>@media (prefers-color-scheme: light) { :root { filter: none; } }
@media (prefers-color-scheme: dark) { :root { filter: invert(100%); } }
</style></svg>